<svg xmlns="http://www.w3.org/2000/svg" viewBox="0 0 380 150" width="380" height="150" fill="none">
  <!-- Pick a Card & Win lockup — Econet Design System v2.0 (for dark backgrounds) -->
  <g transform="translate(14 26) rotate(-8 26 49)">
    <rect x="3" y="3" width="52" height="64" rx="10" fill="#FFFFFF" stroke="#E2231A" stroke-width="3.5"/>
    <path d="M29 19l3.9 7.9 8.7 1.27-6.3 6.15 1.5 8.7L29 38.9l-7.8 4.1 1.5-8.7-6.3-6.15 8.7-1.27L29 19z"
          fill="#FFB020" stroke="#001B8D" stroke-width="1.4" stroke-linejoin="round"/>
  </g>
  <g font-family="Sora, 'Segoe UI', Arial, sans-serif" font-weight="800" letter-spacing="-1">
    <text x="92" y="66" font-size="46" fill="#FFFFFF">PICK A CARD</text>
    <text x="92" y="116" font-size="46" fill="#E2231A">&amp; WIN</text>
    <path transform="translate(238 84)" d="M12 2.5l2.9 5.88 6.49.94-4.7 4.58 1.11 6.46L12 17.9l-5.8 3.05 1.11-6.46-4.7-4.58 6.49-.94L12 2.5z"
          fill="#FFB020" stroke="#FFFFFF" stroke-width="1.25" stroke-linejoin="round"/>
  </g>
</svg>
